<svg xmlns="http://www.w3.org/2000/svg" xmlns:xlink="http://www.w3.org/1999/xlink" width="40" zoomAndPan="magnify" viewBox="0 0 30 30.000001" height="40" preserveAspectRatio="xMidYMid meet" version="1.0"><defs><clipPath id="f6ea180092"><path d="M 2.453125 3.707031 L 27.855469 3.707031 L 27.855469 25.484375 L 2.453125 25.484375 Z M 2.453125 3.707031 " clip-rule="nonzero"/></clipPath></defs><g clip-path="url(#f6ea180092)"><path fill="#ffc107" d="M 19.871094 15.117188 C 19.023438 15.117188 18.335938 14.429688 18.335938 13.582031 C 18.335938 12.734375 19.023438 12.046875 19.871094 12.046875 C 20.71875 12.046875 21.40625 12.734375 21.40625 13.582031 C 21.40625 14.429688 20.71875 15.117188 19.871094 15.117188 Z M 14.75 15.117188 C 13.902344 15.117188 13.210938 14.429688 13.210938 13.582031 C 13.210938 12.734375 13.902344 12.046875 14.75 12.046875 C 15.597656 12.046875 16.285156 12.734375 16.285156 13.582031 C 16.285156 14.429688 15.597656 15.117188 14.75 15.117188 Z M 9.628906 15.117188 C 8.78125 15.117188 8.089844 14.429688 8.089844 13.582031 C 8.089844 12.734375 8.78125 12.046875 9.628906 12.046875 C 10.476562 12.046875 11.164062 12.734375 11.164062 13.582031 C 11.164062 14.429688 10.476562 15.117188 9.628906 15.117188 Z M 15.152344 3.847656 C 8.265625 3.710938 2.59375 7.957031 2.488281 13.328125 C 2.453125 15.195312 3.09375 16.953125 4.234375 18.457031 C 6.195312 20.976562 4.054688 25.308594 4.054688 25.308594 L 10.375 22.585938 C 11.738281 23.019531 13.21875 23.269531 14.769531 23.300781 C 21.65625 23.433594 27.328125 19.191406 27.433594 13.820312 C 27.539062 8.449219 22.039062 3.984375 15.152344 3.847656 " fill-opacity="1" fill-rule="evenodd"/></g></svg>